<svg xmlns="http://www.w3.org/2000/svg" xmlns:xlink="http://www.w3.org/1999/xlink" version="1.1" width="256" height="256" viewBox="0 0 256 256" xml:space="preserve">
<desc>Created with Fabric.js 1.7.22</desc>
<defs>
</defs>
<g transform="translate(128 128) scale(0.72 0.72)" style="">
	<g style="stroke: none; stroke-width: 0; stroke-dasharray: none; stroke-linecap: butt; stroke-linejoin: miter; stroke-miterlimit: 10; fill: none; fill-rule: nonzero; opacity: 1;" transform="translate(-175.05 -175.05000000000004) scale(3.89 3.89)" >
	<path d="M 53.586 78.869 c -15.168 0 -27.508 -12.34 -27.508 -27.508 s 12.34 -27.508 27.508 -27.508 c 0.881 0 1.303 0.023 1.643 0.053 l 0.969 -21.281 H 15.329 v 84.881 h 40.868 l -0.969 -8.691 C 54.899 78.858 54.467 78.869 53.586 78.869 z" style="stroke: none; stroke-width: 1; stroke-dasharray: none; stroke-linecap: butt; stroke-linejoin: miter; stroke-miterlimit: 10; fill: rgb(40,136,168); fill-rule: nonzero; opacity: 1;" transform=" matrix(1 0 0 1 0 0) " stroke-linecap="round" />
	<rect x="26.53" y="2.62" rx="0" ry="0" width="17.71" height="4.45" style="stroke: none; stroke-width: 1; stroke-dasharray: none; stroke-linecap: butt; stroke-linejoin: miter; stroke-miterlimit: 10; fill: rgb(71,160,189); fill-rule: nonzero; opacity: 1;" transform=" matrix(1 0 0 1 0 0) "/>
	<path d="M 55.229 78.816 v 6.086 c 0 0.606 -0.493 1.098 -1.098 1.098 H 18.004 c -0.606 0 -1.098 -0.493 -1.098 -1.098 V 4.731 C 16.906 4.328 17.234 4 17.637 4 h 5.689 c 0.379 2.345 2.052 4.126 4.044 4.126 h 17.396 c 1.992 0 3.664 -1.781 4.044 -4.126 h 5.321 c 0.606 0 1.098 0.493 1.098 1.098 v 18.809 c 1.362 0.081 2.698 0.258 4 0.531 V 5.098 C 59.229 2.283 56.946 0 54.131 0 H 17.637 c -2.613 0 -4.731 2.118 -4.731 4.731 v 80.171 c 0 2.816 2.283 5.098 5.098 5.098 h 36.126 c 2.816 0 5.098 -2.283 5.098 -5.098 v -6.617 C 57.927 78.557 56.591 78.735 55.229 78.816 z M 41.948 4.25 c 0.414 0 0.75 0.336 0.75 0.75 c 0 0.414 -0.336 0.75 -0.75 0.75 c -0.414 0 -0.75 -0.336 -0.75 -0.75 C 41.198 4.586 41.534 4.25 41.948 4.25 z M 29.437 4.25 h 9.466 c 0.414 0 0.75 0.336 0.75 0.75 s -0.336 0.75 -0.75 0.75 h -9.466 c -0.414 0 -0.75 -0.336 -0.75 -0.75 S 29.023 4.25 29.437 4.25 z" style="stroke: none; stroke-width: 1; stroke-dasharray: none; stroke-linecap: butt; stroke-linejoin: miter; stroke-miterlimit: 10; fill: rgb(9,96,125); fill-rule: nonzero; opacity: 1;" transform=" matrix(1 0 0 1 0 0) " stroke-linecap="round" />
	<circle cx="53.59" cy="51.36" r="21" style="stroke: none; stroke-width: 1; stroke-dasharray: none; stroke-linecap: butt; stroke-linejoin: miter; stroke-miterlimit: 10; fill: rgb(222,254,242); fill-rule: nonzero; opacity: 1;" transform="  matrix(1 0 0 1 0 0) "/>
	<path d="M 55.832 46.387 c -0.753 0.753 -0.753 1.975 0 2.728 s 1.975 0.753 2.728 0 c 0.753 -0.753 0.753 -1.975 0 -2.728 C 57.807 45.634 56.585 45.634 55.832 46.387 z" style="stroke: none; stroke-width: 1; stroke-dasharray: none; stroke-linecap: butt; stroke-linejoin: miter; stroke-miterlimit: 10; fill: rgb(0,176,102); fill-rule: nonzero; opacity: 1;" transform=" matrix(1 0 0 1 0 0) " stroke-linecap="round" />
	<path d="M 53.586 27.853 c -12.983 0 -23.508 10.525 -23.508 23.508 c 0 12.983 10.525 23.508 23.508 23.508 s 23.508 -10.525 23.508 -23.508 C 77.094 38.378 66.569 27.853 53.586 27.853 z M 56.922 55.357 c -0.008 0.008 -0.016 0.015 -0.024 0.024 v 4.411 l -2.233 4.052 l -3.719 -3.719 c -0.517 0.316 -1.029 0.609 -1.53 0.865 l -5.457 -5.457 c 0.256 -0.5 0.549 -1.013 0.865 -1.53 l -3.719 -3.719 l 4.052 -2.233 h 4.411 c 0.008 -0.008 0.016 -0.016 0.024 -0.024 c 5.292 -5.292 11.26 -8.088 14.189 -6.857 C 65.01 44.097 62.214 50.065 56.922 55.357 z" style="stroke: none; stroke-width: 1; stroke-dasharray: none; stroke-linecap: butt; stroke-linejoin: miter; stroke-miterlimit: 10; fill: rgb(0,176,102); fill-rule: nonzero; opacity: 1;" transform=" matrix(1 0 0 1 0 0) " stroke-linecap="round" />
</g>
</g>
</svg>