<svg xmlns="http://www.w3.org/2000/svg" xmlns:xlink="http://www.w3.org/1999/xlink" version="1.1" width="256" height="256" viewBox="0 0 256 256" xml:space="preserve">
<desc>Created with Fabric.js 1.7.22</desc>
<defs>
</defs>
<g transform="translate(128 128) scale(0.72 0.72)" style="">
	<g style="stroke: none; stroke-width: 0; stroke-dasharray: none; stroke-linecap: butt; stroke-linejoin: miter; stroke-miterlimit: 10; fill: none; fill-rule: nonzero; opacity: 1;" transform="translate(-175.05 -175.05000000000004) scale(3.89 3.89)" >
	<path d="M 23.62 2.109 v 15.088 h 8.78 c 5.017 0 9.099 4.082 9.099 9.098 V 79.98 h 44.045 V 2.109 H 23.62 z" style="stroke: none; stroke-width: 1; stroke-dasharray: none; stroke-linecap: butt; stroke-linejoin: miter; stroke-miterlimit: 10; fill: rgb(152,192,229); fill-rule: nonzero; opacity: 1;" transform=" matrix(1 0 0 1 0 0) " stroke-linecap="round" />
	<rect x="4.15" y="23.57" rx="0" ry="0" width="30.35" height="64.2" style="stroke: none; stroke-width: 1; stroke-dasharray: none; stroke-linecap: butt; stroke-linejoin: miter; stroke-miterlimit: 10; fill: rgb(152,192,229); fill-rule: nonzero; opacity: 1;" transform=" matrix(1 0 0 1 0 0) "/>
	<circle cx="54.559" cy="83.429" r="3.899" style="stroke: none; stroke-width: 1; stroke-dasharray: none; stroke-linecap: butt; stroke-linejoin: miter; stroke-miterlimit: 10; fill: rgb(236,240,241); fill-rule: nonzero; opacity: 1;" transform="  matrix(1 0 0 1 0 0) "/>
	<rect x="13.63" y="23.1" rx="0" ry="0" width="11.81" height="2.32" style="stroke: none; stroke-width: 1; stroke-dasharray: none; stroke-linecap: butt; stroke-linejoin: miter; stroke-miterlimit: 10; fill: rgb(236,240,241); fill-rule: nonzero; opacity: 1;" transform=" matrix(1 0 0 1 0 0) "/>
	<path d="M 32.4 21.197 H 7.183 c -2.816 0 -5.098 2.283 -5.098 5.098 v 58.607 C 2.085 87.717 4.368 90 7.183 90 H 32.4 c 2.816 0 5.098 -2.283 5.098 -5.098 V 26.295 C 37.498 23.479 35.215 21.197 32.4 21.197 L 32.4 21.197 z M 24.308 24.943 c -0.379 0 -0.688 -0.309 -0.688 -0.688 s 0.309 -0.688 0.688 -0.688 s 0.688 0.309 0.688 0.688 S 24.688 24.943 24.308 24.943 L 24.308 24.943 z M 14.743 24.879 c -0.345 0 -0.624 -0.279 -0.624 -0.624 c 0 -0.345 0.279 -0.624 0.624 -0.624 h 7.237 c 0.345 0 0.624 0.279 0.624 0.624 c 0 0.345 -0.279 0.624 -0.624 0.624 H 14.743 L 14.743 24.879 z M 13.142 26.645 h 13.299 c 1.315 0 2.445 -1.017 2.917 -2.448 H 32.4 c 1.157 0 2.098 0.941 2.098 2.098 v 58.607 c 0 1.157 -0.941 2.098 -2.098 2.098 H 7.183 c -1.157 0 -2.098 -0.941 -2.098 -2.098 V 26.295 c 0 -1.157 0.941 -2.098 2.098 -2.098 h 3.042 C 10.697 25.628 11.827 26.645 13.142 26.645 L 13.142 26.645 z" style="stroke: none; stroke-width: 1; stroke-dasharray: none; stroke-linecap: butt; stroke-linejoin: miter; stroke-miterlimit: 10; fill: rgb(49,68,88); fill-rule: nonzero; opacity: 1;" transform=" matrix(1 0 0 1 0 0) " stroke-linecap="round" />
	<path d="M 82.876 0 H 26.515 c -2.771 0 -5.039 2.268 -5.039 5.039 v 12.158 h 3 V 5.039 C 24.476 3.934 25.409 3 26.515 3 h 56.361 c 1.105 0 2.039 0.934 2.039 2.039 v 72.387 H 41.498 v 7.475 c 0 1.888 -0.579 3.643 -1.567 5.099 h 42.945 c 2.771 0 5.039 -2.268 5.039 -5.039 V 5.039 C 87.915 2.268 85.647 0 82.876 0 z M 54.695 86.639 c -1.527 0 -2.765 -1.238 -2.765 -2.765 c 0 -1.527 1.238 -2.765 2.765 -2.765 s 2.765 1.238 2.765 2.765 C 57.461 85.401 56.223 86.639 54.695 86.639 z" style="stroke: none; stroke-width: 1; stroke-dasharray: none; stroke-linecap: butt; stroke-linejoin: miter; stroke-miterlimit: 10; fill: rgb(49,68,88); fill-rule: nonzero; opacity: 1;" transform=" matrix(1 0 0 1 0 0) " stroke-linecap="round" />
</g>
</g>
</svg>